<svg width="27" height="33" viewBox="0 0 27 33" fill="none" xmlns="http://www.w3.org/2000/svg">
<g id="bx:bx-map" clip-path="url(#clip0_1_603)">
<path id="Vector" d="M13.4998 19.884C16.9927 19.884 19.8332 17.0435 19.8332 13.5506C19.8332 10.0578 16.9927 7.21729 13.4998 7.21729C10.007 7.21729 7.1665 10.0578 7.1665 13.5506C7.1665 17.0435 10.007 19.884 13.4998 19.884ZM13.4998 10.384C15.2463 10.384 16.6665 11.8042 16.6665 13.5506C16.6665 15.297 15.2463 16.7173 13.4998 16.7173C11.7534 16.7173 10.3332 15.297 10.3332 13.5506C10.3332 11.8042 11.7534 10.384 13.4998 10.384Z" fill="#2091F9"/>
<path id="Vector_2" d="M12.2487 32.2561C12.5166 32.4474 12.8377 32.5503 13.167 32.5503C13.4963 32.5503 13.8173 32.4474 14.0853 32.2561C14.5667 31.9157 25.8796 23.7472 25.8337 13.5506C25.8337 6.56649 20.1511 0.883911 13.167 0.883911C6.18291 0.883911 0.500322 6.56649 0.500322 13.5427C0.454406 23.7472 11.7673 31.9157 12.2487 32.2561ZM13.167 4.05058C18.4062 4.05058 22.667 8.31133 22.667 13.5585C22.7002 20.5853 15.7193 26.8949 13.167 28.9643C10.6162 26.8933 3.63374 20.5822 3.66699 13.5506C3.66699 8.31133 7.92774 4.05058 13.167 4.05058Z" fill="#2091F9"/>
</g>
<defs>
<clipPath id="clip0_1_603">
<rect width="26" height="32" fill="white" transform="translate(0.5 0.717285)"/>
</clipPath>
</defs>
</svg>
