<svg width="42" height="42" viewBox="0 0 42 42" fill="none" xmlns="http://www.w3.org/2000/svg">
<g id="ant-design:facebook-filled">
<path id="Vector" d="M36.2103 5.38538H6.75117C6.04271 5.38538 5.47034 5.95775 5.47034 6.66621V36.1253C5.47034 36.8338 6.04271 37.4062 6.75117 37.4062H36.2103C36.9187 37.4062 37.4911 36.8338 37.4911 36.1253V6.66621C37.4911 5.95775 36.9187 5.38538 36.2103 5.38538ZM32.5119 14.7314H29.9542C27.9489 14.7314 27.5607 15.6841 27.5607 17.085V20.171H32.3478L31.7234 25.0021H27.5607V37.4062H22.5694V25.0061H18.3947V20.171H22.5694V16.6087C22.5694 12.474 25.0951 10.2205 28.7855 10.2205C30.5546 10.2205 32.0716 10.3526 32.5159 10.4126V14.7314H32.5119Z" fill="#2091F9"/>
</g>
</svg>
