<svg width="42" height="42" viewBox="0 0 42 42" fill="none" xmlns="http://www.w3.org/2000/svg">
<g id="ant-design:linkedin-filled">
<path id="Vector" d="M36.1981 5.38538H6.73902C6.03056 5.38538 5.45819 5.95775 5.45819 6.66621V36.1253C5.45819 36.8338 6.03056 37.4062 6.73902 37.4062H36.1981C36.9066 37.4062 37.479 36.8338 37.479 36.1253V6.66621C37.479 5.95775 36.9066 5.38538 36.1981 5.38538ZM14.9564 32.6711H10.2053V17.3892H14.9564V32.6711ZM12.5828 15.2998C12.0382 15.2998 11.5057 15.1383 11.0529 14.8357C10.6 14.5331 10.2471 14.103 10.0386 13.5999C9.83022 13.0967 9.77568 12.543 9.88194 12.0088C9.9882 11.4746 10.2505 10.9839 10.6356 10.5988C11.0207 10.2137 11.5114 9.9514 12.0456 9.84515C12.5798 9.73889 13.1335 9.79343 13.6366 10.0019C14.1398 10.2103 14.5699 10.5632 14.8725 11.0161C15.1751 11.469 15.3366 12.0014 15.3366 12.546C15.3326 14.067 14.0998 15.2998 12.5828 15.2998ZM32.7439 32.6711H27.9968V25.2383C27.9968 23.4651 27.9648 21.1876 25.5272 21.1876C23.0576 21.1876 22.6774 23.1169 22.6774 25.1102V32.6711H17.9343V17.3892H22.4892V19.4785H22.5533C23.1857 18.2777 24.7347 17.0089 27.0482 17.0089C31.8593 17.0089 32.7439 20.175 32.7439 24.2896V32.6711Z" fill="#2091F9"/>
</g>
</svg>
