<svg width="41" height="42" viewBox="0 0 41 42" fill="none" xmlns="http://www.w3.org/2000/svg">
<g id="ant-design:twitter-outlined">
<path id="Vector" d="M37.145 11.0812C35.9202 11.6095 34.5873 11.9898 33.2144 12.1379C34.6398 11.291 35.7072 9.95323 36.2164 8.37541C34.8788 9.17108 33.4136 9.72902 31.8855 10.0245C31.2469 9.34174 30.4745 8.79785 29.6165 8.42667C28.7585 8.0555 27.8332 7.86502 26.8983 7.86708C23.1159 7.86708 20.0739 10.9331 20.0739 14.6955C20.0739 15.2239 20.1379 15.7522 20.242 16.2605C14.5783 15.9643 9.52705 13.2586 6.16887 9.11589C5.55697 10.161 5.23632 11.351 5.24026 12.5621C5.24026 14.9317 6.44505 17.021 8.28224 18.2498C7.19955 18.2072 6.14222 17.9096 5.19624 17.3813V17.4653C5.19624 20.7835 7.54176 23.5332 10.6678 24.1657C10.0808 24.3181 9.47704 24.3961 8.87062 24.3978C8.42633 24.3978 8.00606 24.3538 7.58178 24.2937C8.44634 26.9995 10.964 28.9648 13.9619 29.0288C11.6164 30.866 8.67849 31.9467 5.48843 31.9467C4.91605 31.9467 4.38771 31.9267 3.83936 31.8627C6.86532 33.8039 10.4556 34.9246 14.3222 34.9246C26.8743 34.9246 33.7428 24.5259 33.7428 15.5C33.7428 15.2038 33.7428 14.9077 33.7227 14.6115C35.0516 13.6388 36.2164 12.434 37.145 11.0812Z" fill="#2091F9"/>
</g>
</svg>
